<svg xmlns="http://www.w3.org/2000/svg" viewBox="0 0 750 500"><g id="freepik--background-complete--inject-34"><path d="M475.65,127.14l158.07.66s-15-34.25-47-34.27c-24.39,0-25.47,15.18-40.11,19.52S501.12,90.82,475.65,127.14Z" style="fill:#ebebeb"></path><path d="M225.66,72.09l114.67.48s-10.86-24.84-34.07-24.86c-17.69,0-18.48,11-29.09,14.16S244.14,45.75,225.66,72.09Z" style="fill:#ebebeb"></path><path d="M609.37,359.2c-9.12-17-29.57-28.87-48-23.32,2-18.12-8-37-24.18-45.44a46.41,46.41,0,0,0-32.26-3.6V440.7H605.59l9.15-25.07C618.35,396.69,618.5,376.17,609.37,359.2Z" style="fill:#ebebeb"></path><path d="M638,397.56a35.85,35.85,0,0,0-15.44,1.61,47.24,47.24,0,0,0-70.2-43.7A34.38,34.38,0,0,0,504.91,329V439.6H672.6v-2.71C672.6,417,657.84,399.73,638,397.56Z" style="fill:#e0e0e0"></path><path d="M36.17,440.49A51.59,51.59,0,0,1,74.59,374c.18-21.88,13.35-43.17,32.84-53.11s44.46-8.09,62.27,4.61l3.86,115.37Z" style="fill:#e0e0e0"></path></g><g id="freepik--Floor--inject-34"><path d="M692.5,441c0,.15-146.55.26-327.28.26S37.91,441.18,37.91,441s146.52-.26,327.31-.26S692.5,440.89,692.5,441Z" style="fill:#263238"></path></g><g id="freepik--bus-stop--inject-34"><path d="M504.08,392.77H117.2v-201H501.79S504.08,395,504.08,392.77Z" style="fill:#f5f5f5"></path><path d="M361.47,203.73v90h67v-90S361.47,204.45,361.47,203.73Z" style="fill:#e0e0e0"></path><polygon points="361.47 203.91 361.47 217.91 428.45 218.32 428.45 203.73 361.47 203.91" style="fill:#455a64"></polygon><path d="M385.69,210.17v2.74h21.45v-2.38Z" style="fill:#fff"></path><rect x="365.2" y="224.35" width="20.97" height="22.48" style="fill:#fff"></rect><path d="M383.24,270.39l.93,0,2.66,0,9.74,0-.08.08c0-6.7,0-15.54,0-25.22v-5.74h.1l19.28,0-.08.07c.07-4.15.13-7.54.17-10,0-1.14,0-2,.05-2.72s0-.95,0-.95,0,.33,0,.95,0,1.58,0,2.72c0,2.42-.06,5.81-.1,10v.07h-.08l-19.28,0,.11-.1v5.63c0,9.68,0,18.52,0,25.22v.08h-.08l-9.74,0-2.66,0Z" style="fill:#136ABB"></path><path d="M422.71,277.05l-1.59,0-4.48,0-16,0h-.09v-.09c0-6.47,0-14.09,0-22.22V244.36h13.32l-.09.09c0-6.2,0-11.37,0-15,0-1.78,0-3.19,0-4.2s0-1.48,0-1.48,0,.51,0,1.48,0,2.42,0,4.2c0,3.66,0,8.83,0,15v.09H400.62l.1-.1v10.37c0,8.13,0,15.75,0,22.22l-.09-.09,16,0,4.48,0Z" style="fill:#263238"></path><polygon points="365.34 251.87 365.34 253.99 382.3 253.99 382.3 251.45 365.34 251.87" style="fill:#fff"></polygon><polygon points="365.2 255.43 365.2 257.54 382.17 257.54 382.17 255.01 365.2 255.43" style="fill:#fff"></polygon><path d="M92.38,98.48V164.2H525.49V99.28S90.8,96.9,92.38,98.48Z" style="fill:#263238"></path><path d="M445.68,158.6,445.73,441h6.81l.06-280.84S444.54,158.6,445.68,158.6Z" style="fill:#263238"></path><path d="M493.47,160.72l1.14,279.76h13.62V160.72S492.34,159.54,493.47,160.72Z" style="fill:#263238"></path><path d="M92.38,128.74v15.59H525.49V127.8Z" style="fill:#136ABB"></path><path d="M105.22,156.91l1.14,284.2H120V156.91S104.09,155.71,105.22,156.91Z" style="fill:#263238"></path><path d="M167.62,163.59V441.26h6.81v-279S166.48,163.59,167.62,163.59Z" style="fill:#263238"></path><polygon points="125.02 201.31 125.42 382.64 162.53 382.64 161.79 201.31 125.02 201.31" style="fill:#136ABB"></polygon></g><g id="freepik--Bench--inject-34"><rect x="277.08" y="366.39" width="6.99" height="74.2" style="fill:#263238"></rect><path d="M363.57,366.89H194a5.83,5.83,0,0,1-5.83-5.83h0a5.83,5.83,0,0,1,5.83-5.82h169.6a5.83,5.83,0,0,1,5.82,5.82h0A5.83,5.83,0,0,1,363.57,366.89Z" style="fill:#455a64"></path></g><g id="freepik--Sign--inject-34"><rect x="654.44" y="201.13" width="8.96" height="239.91" style="fill:#263238"></rect><rect x="622.56" y="134.4" width="78.57" height="66.72" style="fill:#136ABB"></rect><path d="M696.55,196.63H628V138.34h68.51Zm-67.76-.75h67V139.09h-67Z" style="fill:#fff"></path><path d="M638.49,157.28l-.18,20.31h50.18v-7.71a4.21,4.21,0,0,0-4.22-4.21h0a4.22,4.22,0,0,1-4.21-4.22v-4.3a4.2,4.2,0,0,0-4.21-4.21l-33.2.16A4.18,4.18,0,0,0,638.49,157.28Z" style="fill:#fff"></path><path d="M685.2,177.6a4.74,4.74,0,1,1-4.73-4.74A4.73,4.73,0,0,1,685.2,177.6Z" style="fill:#136ABB"></path><circle cx="680.4" cy="177.64" r="3.31" style="fill:#fff"></circle><path d="M651.79,176.89a4.74,4.74,0,1,1-4.73-4.74A4.73,4.73,0,0,1,651.79,176.89Z" style="fill:#136ABB"></path><path d="M650.3,176.93a3.31,3.31,0,1,1-3.3-3.31A3.31,3.31,0,0,1,650.3,176.93Z" style="fill:#fff"></path><path d="M640.52,158.69v6.86h4.66v-6.86A36.23,36.23,0,0,0,640.52,158.69Z" style="fill:#136ABB"></path><path d="M647.27,158.69v6.86h4.67v-6.86A36.39,36.39,0,0,0,647.27,158.69Z" style="fill:#136ABB"></path><path d="M654,158.69v6.86h4.67v-6.86A36.39,36.39,0,0,0,654,158.69Z" style="fill:#136ABB"></path><path d="M661.17,158.69v6.86h4.67v-6.86A36.39,36.39,0,0,0,661.17,158.69Z" style="fill:#136ABB"></path><path d="M667.83,158.69v6.86h4.67v-6.86A36.39,36.39,0,0,0,667.83,158.69Z" style="fill:#136ABB"></path><path d="M675,158.69v6.86h4.67v-6.86A36.39,36.39,0,0,0,675,158.69Z" style="fill:#136ABB"></path></g><g id="freepik--character-3--inject-34"><path d="M668.93,258.05c-1.13-.64-5.72,4.21-5.49,2.72s6.48-5.42,5.26-6c-1.58-.81-6.28,4.33-6.72,4.74s-1.19-.07-.77-.42c.6-.51,6.77-6,5.23-6.82-.86-.45-1.76.86-1.76.86s-5.3,5.47-6,5.07,2.26-3.71,3.36-4.76.91-1.88-.06-1.87c-.66,0-4.13,3.18-5.19,4.24s-3.91,4-4,1.68-1.24-4.12-2-4.42-1.55.41-1.14,1.06a7.22,7.22,0,0,1,.64,2.31,4.47,4.47,0,0,1-.08,1.67c-2.65,2.19-21.65,17.79-23.86,17.12-2.37-.71-11.49-30.41-11.49-30.41l-9.31,27.06s6.53,19.54,18.63,19.74c14.51.25,35.14-25.88,35.14-25.89,2.74-1.66,5.67-3.51,7.15-4.68C669.62,258.51,669.35,258.28,668.93,258.05Z" style="fill:#b78876"></path><path d="M610.69,273.05l12.94-8.42s-6.4-26.37-17-27.21l-1,9.65Z" style="fill:#136ABB"></path><path d="M581.35,308.47c.83,1.16,7.36,49.63,7.36,49.63l-43.94,43,10.3,10.9s51.7-43.58,52.75-48.57c1.26-6-2.25-51.48-2.25-51.48Z" style="fill:#a36957"></path><polygon points="582.14 335.05 591.69 335.05 579.3 315.43 582.14 335.05" style="fill:#263238"></polygon><path d="M578.72,214.07a11.7,11.7,0,0,1-8.86,10.71c-2.51.61-5.4.32-7.4,2-3.41,2.89-1.41,8.89-3.71,12.78-1.42,2.38-4.23,3.56-5.82,5.82-2.65,3.77-.87,9.46,2.74,12.27s8.42,3.34,12.94,3.22c10-.25,20.15-3.42,27.35-10.47,3.38-3.32,14.33-15.92,9.36-34.09" style="fill:#263238"></path><path d="M601.4,237.48c-.26-1.39-.45-8.88-.45-8.88s5.21-.66,5.43-6-.3-17.54-.3-17.54l-9.58-4.6-10.3,8.3,1.78,27Z" style="fill:#b78876"></path><path d="M605.2,214a.67.67,0,1,1-1.33,0,.67.67,0,1,1,1.33,0Z" style="fill:#263238"></path><path d="M605.82,213.27c-.08.09-.58-.32-1.29-.35s-1.24.33-1.32.24,0-.21.28-.38a1.69,1.69,0,0,1,1.06-.3,1.74,1.74,0,0,1,1,.4C605.79,213.06,605.86,213.23,605.82,213.27Z" style="fill:#263238"></path><path d="M597.53,214.16a.68.68,0,0,1-.65.69.67.67,0,0,1-.68-.67.68.68,0,0,1,.65-.69A.67.67,0,0,1,597.53,214.16Z" style="fill:#263238"></path><path d="M597.93,213.41c-.09.09-.58-.33-1.3-.35s-1.24.33-1.32.23.05-.2.28-.37a1.71,1.71,0,0,1,1.06-.31,1.69,1.69,0,0,1,1,.4C597.89,213.2,598,213.37,597.93,213.41Z" style="fill:#263238"></path><path d="M600.6,219.54a4.55,4.55,0,0,1,1.17-.18c.18,0,.35,0,.38-.17a1,1,0,0,0-.11-.58l-.51-1.51a27.31,27.31,0,0,1-1.15-3.93,27.51,27.51,0,0,1,1.44,3.83c.17.53.33,1,.49,1.51a1.24,1.24,0,0,1,.08.77.44.44,0,0,1-.3.27.91.91,0,0,1-.31,0A4.1,4.1,0,0,1,600.6,219.54Z" style="fill:#263238"></path><path d="M598.26,220.27a7.94,7.94,0,0,0,3.47,1.16,2,2,0,0,1-2.35.73A1.56,1.56,0,0,1,598.26,220.27Z" style="fill:#fff"></path><path d="M601,228.6a12.65,12.65,0,0,1-6.89-2.26,6.94,6.94,0,0,0,6.93,3.58Z" style="fill:#a36957"></path><path d="M606.35,212.54h0a10.47,10.47,0,0,0-2.52-11.31c-5.22-5.38-8.72-4.18-10.73-4.15s-11.31,2.26-13.94,13.37a20.88,20.88,0,0,0-.28,2.16h0c-.06.6-.11,1.16-.16,1.54l.12,0c0,4.6.65,18.19,9,19.88l-.81-21.14s8.51-1,9.88-8.94C596.94,203.93,603.11,212.83,606.35,212.54Z" style="fill:#263238"></path><path d="M610.26,362.05c2.91,14.05,13.56,73,13.56,73l14.77-2.62L631.68,358a25.19,25.19,0,0,0-1.19-5.77l-17-51-33.31-21.6c-.32,0-3.92,14.39-3.22,23.51A23.43,23.43,0,0,0,581,314.46c2,3,4.87,7.11,5.51,8.07C587.55,324.06,610.26,362.05,610.26,362.05Z" style="fill:#b78876"></path><path d="M546.56,221.64c-1.51-11.91,2-24.84,3.42-29.38.49-.47,1.09-1,1.82-1.62a7.35,7.35,0,0,1,2.11-1.2,11.24,11.24,0,0,1,2.93-.74.94.94,0,0,0,.68-1.64c-.69-.49-3.26-.53-6,.74s-.67-3,.05-4.54,2.71-6.5,2.4-7.1c-.44-.88-1.47-.56-2.15,1s-3.05,6.17-3.86,5.75,3-8.32,3-8.32,1.08-1.56.17-2.07c-1.66-.93-5,7.77-5.34,8.6-.21.58-1.1.16-.84-.45s3.93-7.8,2.26-8.76c-1.29-.74-2.85,7.13-4.44,8.19s1.8-5.84.54-6.5c-.47-.24-.85-.36-2.22,3.89a90.91,90.91,0,0,0-2.06,9.44l0,0s-17.27,42.57,1.11,51c19.51,8.92,36.85,15.18,36.85,15.18L582,235S546.84,223.79,546.56,221.64Z" style="fill:#b78876"></path><path d="M577.06,253.11,580,280.83l-1.26,5.68,31,.15,5.81-29.49.59-3.28A14.67,14.67,0,0,0,603,236.65l-.39,0-27.54-3.93Z" style="fill:#b78876"></path><polygon points="609.54 293.81 609.77 286.66 579.99 281.8 609.54 293.81" style="fill:#b78876"></polygon><path d="M544.77,401.14l-4.65,4.14.59.72c2.66,3.2,13.75,16.07,16.25,17.53,2.8,1.62-3.8-9.7-3.8-9.7l1.91-1.79" style="fill:#136ABB"></path><g style="opacity:0.5"><path d="M543.92,409.19a5.15,5.15,0,0,0,1-3.59,5.08,5.08,0,0,0-1.59-3.32l-3.08,2.87Z" style="fill:#fff"></path></g><path d="M556.22,419.52s2.11,4.16,1.19,4.25-12.62-12.49-17.29-18.49l.26-.21,13.52,14.79S555.6,418.9,556.22,419.52Z" style="fill:#fff;opacity:0.5"></path><path d="M540.23,404.89a1.21,1.21,0,0,0,.15.21l.48.57,1.77,2.09c1.51,1.74,3.63,4.13,6,6.72s4.62,4.87,6.25,6.51l2,1.93.54.51a1,1,0,0,0,.19.17.95.95,0,0,0-.19-.17c-.15-.17-.32-.34-.51-.54l-1.9-2c-1.61-1.66-3.82-4-6.21-6.55s-4.54-5-6.07-6.68l-1.82-2c-.18-.21-.35-.39-.5-.55A1.83,1.83,0,0,0,540.23,404.89Z" style="fill:#263238"></path><path d="M553.72,420a6,6,0,0,1,1.31-.52,6.55,6.55,0,0,1,1.4,0,2,2,0,0,0-1.44-.15A2,2,0,0,0,553.72,420Z" style="fill:#263238"></path><path d="M552.35,415.23a1.62,1.62,0,0,0,.75,0c.4-.08.72-.18.71-.23a1.55,1.55,0,0,0-.75.05C552.66,415.08,552.34,415.18,552.35,415.23Z" style="fill:#263238"></path><path d="M552,413.9c0,.05.28.12.62.15s.64,0,.64,0-.27-.12-.62-.15S552,413.85,552,413.9Z" style="fill:#263238"></path><path d="M552.51,412.37s.17.32.46.64.56.56.6.52a1.89,1.89,0,0,0-.47-.64C552.81,412.57,552.55,412.34,552.51,412.37Z" style="fill:#263238"></path><path d="M553.06,411.5a1.6,1.6,0,0,0,.41.81c.32.4.68.62.71.58s-.26-.31-.57-.69S553.11,411.47,553.06,411.5Z" style="fill:#263238"></path><path d="M553.66,414.71a2.5,2.5,0,0,0,.66.71,6.19,6.19,0,0,0,.87.6,2.82,2.82,0,0,0,.58.26.47.47,0,0,0,.38,0,.37.37,0,0,0,.18-.37,1.77,1.77,0,0,0-1.87-1.25,1.82,1.82,0,0,0-.69.21c-.14.08-.21.15-.2.16a2.6,2.6,0,0,1,.9-.24,1.77,1.77,0,0,1,.95.24,1.49,1.49,0,0,1,.73.9c0,.19-.15.26-.34.21a3.7,3.7,0,0,1-.54-.24,7.83,7.83,0,0,1-.87-.55C553.93,415,553.68,414.69,553.66,414.71Z" style="fill:#263238"></path><path d="M553.79,414.93s.28-.05.57-.38a1.63,1.63,0,0,0,.34-.67,1,1,0,0,0-.19-.93.39.39,0,0,0-.53.09,1.11,1.11,0,0,0-.2.41,3.14,3.14,0,0,0-.12.74,1.43,1.43,0,0,0,.09.67s0-.26,0-.66a3.69,3.69,0,0,1,.15-.7c.06-.23.26-.55.46-.4a.88.88,0,0,1,.14.75,1.54,1.54,0,0,1-.28.62A2.94,2.94,0,0,1,553.79,414.93Z" style="fill:#263238"></path><path d="M543.45,402.31s.33.29.73.84a4.92,4.92,0,0,1,.92,2.46,4.81,4.81,0,0,1-.54,2.57c-.31.61-.62.92-.59.94s.09-.06.22-.21a4.17,4.17,0,0,0,.49-.67,4.7,4.7,0,0,0,.6-2.64,4.58,4.58,0,0,0-1-2.52,3.74,3.74,0,0,0-.58-.6C543.55,402.36,543.46,402.3,543.45,402.31Z" style="fill:#263238"></path><path d="M546.29,409.58a12.07,12.07,0,0,0,3,3.25s-.68-.72-1.49-1.61S546.33,409.55,546.29,409.58Z" style="fill:#263238"></path><path d="M544.28,407.42s-.1.2-.19.43-.21.4-.17.44.23-.11.33-.37S544.33,407.42,544.28,407.42Z" style="fill:#263238"></path><path d="M544.54,405.66s-.1.18-.11.4,0,.4.07.41.1-.18.11-.4S544.59,405.67,544.54,405.66Z" style="fill:#263238"></path><path d="M543.92,404.07s.11.19.2.4.11.41.17.42.11-.23,0-.49S543.94,404,543.92,404.07Z" style="fill:#263238"></path><path d="M543.37,403s0,.13,0,.26.13.21.18.19,0-.14,0-.26S543.41,403,543.37,403Z" style="fill:#263238"></path><path d="M580,280.83s-6.9,19.2-3.14,29.23,14.79,27.23,14.79,27.23l34.61-15.58-16.48-29.45v-5.6Z" style="fill:#455a64"></path><path d="M587.87,234l-26.12-5.88-4.33,23.71,18.31,4.07L580,280.83l29.78,5.83s5.48-25.43,6.49-30.08c2-9.09-1.66-13.43-1.66-13.43a12.37,12.37,0,0,0-8-5.73Z" style="fill:#136ABB"></path><path d="M610.93,249.28a8.18,8.18,0,0,0,0,3.48,14.37,14.37,0,0,0,1.46,3.51,30.48,30.48,0,0,1,2.12,4.28,13.56,13.56,0,0,1,.1,8.62,11.77,11.77,0,0,1-1.08,2.41,3.07,3.07,0,0,1-.56.78,30.79,30.79,0,0,0,1.29-3.3,14,14,0,0,0-.24-8.33,32,32,0,0,0-2-4.23,13.8,13.8,0,0,1-1.4-3.66,6.69,6.69,0,0,1,0-2.65A2.25,2.25,0,0,1,610.93,249.28Z" style="fill:#263238"></path><path d="M622.57,315.1c.07.12-7.45,4-16.78,8.71s-17,8.38-17,8.25,7.45-4,16.78-8.71S622.51,315,622.57,315.1Z" style="fill:#263238"></path><path d="M604.31,285.85a4.48,4.48,0,0,1,0,2.17,8.63,8.63,0,0,1-7,7.17,4.54,4.54,0,0,1-2.17,0c0-.09.83-.07,2.09-.4A9,9,0,0,0,604,288C604.27,286.68,604.22,285.85,604.31,285.85Z" style="fill:#263238"></path><path d="M570.61,301.88s-5.78-1.08-10.31,7.18a104.16,104.16,0,0,0-7.59,18.62,7.76,7.76,0,0,0,5,9.67l4.29,1.41a7.76,7.76,0,0,0,9.76-4.87C575.37,323.12,580.4,303.85,570.61,301.88Z" style="fill:#263238"></path><path d="M574.73,303.56a20.68,20.68,0,0,1-1.24,3.18c-.44,1-.94,2.16-1.49,3.4a3,3,0,0,1-1.52,1.74A4.33,4.33,0,0,1,568,312a2.23,2.23,0,0,1-1.17-.64,1.58,1.58,0,0,1-.34-1.29,6.61,6.61,0,0,1,.9-2.08l1.82-3.23a21.84,21.84,0,0,1,1.78-2.91,21.72,21.72,0,0,1-1.46,3.09l-1.72,3.28a6.87,6.87,0,0,0-.82,1.92,1.1,1.1,0,0,0,.24.88,1.66,1.66,0,0,0,.89.47,3.94,3.94,0,0,0,2.16,0,2.56,2.56,0,0,0,1.28-1.47l1.58-3.35A23.6,23.6,0,0,1,574.73,303.56Z" style="fill:#455a64"></path><path d="M568.72,311.75a5.22,5.22,0,0,1-.24,1.15c-.19.73-.48,1.78-.88,3.07-.8,2.58-2,6.1-3.43,10l-1.78,5,0,.14-.15,0c-2.79.34-5.17.6-6.86.77a15.53,15.53,0,0,1-2.68.19,18,18,0,0,1,2.65-.48c1.67-.26,4.05-.59,6.83-1l-.2.16c.52-1.55,1.12-3.25,1.75-5,1.4-3.87,2.69-7.36,3.57-9.9l1-3A4.55,4.55,0,0,1,568.72,311.75Z" style="fill:#455a64"></path><path d="M562.16,330.86a21.82,21.82,0,0,1,3.47,3.3,22.65,22.65,0,0,1,3.09,3.67,22.78,22.78,0,0,1-3.47-3.31A22.36,22.36,0,0,1,562.16,330.86Z" style="fill:#455a64"></path><path d="M562.33,305.75s.11,0,.31,0a2.19,2.19,0,0,1,.79.45,3.49,3.49,0,0,1,1,3.09c-.17,1.44-1.12,2.87-1.89,4.46a5.74,5.74,0,0,0-.66,2.61,7,7,0,0,0,.86,2.79,8.07,8.07,0,0,1,1,3,3.15,3.15,0,0,1-1,2.77,2.63,2.63,0,0,1-2.67.17,6.38,6.38,0,0,1-1.87-1.35,11.62,11.62,0,0,0-2.36-2.14,7,7,0,0,0-1.08-.45s.11,0,.32,0a3.1,3.1,0,0,1,.86.27,10.39,10.39,0,0,1,2.52,2.06,6,6,0,0,0,1.78,1.21,2.19,2.19,0,0,0,2.21-.15,2.68,2.68,0,0,0,.82-2.36,7.51,7.51,0,0,0-.92-2.79,7.51,7.51,0,0,1-.89-3,6.26,6.26,0,0,1,.73-2.84c.84-1.63,1.77-3,2-4.3a3.35,3.35,0,0,0-.78-2.89A3.51,3.51,0,0,0,562.33,305.75Z" style="fill:#e0e0e0"></path><path d="M573.6,327.89a2.44,2.44,0,0,1-.79.3,8.59,8.59,0,0,1-2.28.37,4.47,4.47,0,0,1-3.25-1.2,3.13,3.13,0,0,1-1-1.89,3.32,3.32,0,0,1,.62-2.19,6.63,6.63,0,0,1,3.52-2.35,18.93,18.93,0,0,0,3.12-1.2,5.27,5.27,0,0,0,2.16-2.08s0,.32-.29.8a4.85,4.85,0,0,1-1.69,1.6,17.23,17.23,0,0,1-3.14,1.33,6.37,6.37,0,0,0-3.25,2.19,2.82,2.82,0,0,0-.54,1.85,2.6,2.6,0,0,0,.79,1.6,4.16,4.16,0,0,0,2.91,1.17,10.65,10.65,0,0,0,2.24-.2A2.69,2.69,0,0,1,573.6,327.89Z" style="fill:#e0e0e0"></path><path d="M572,335.16a21.24,21.24,0,0,0-1.78-1.25,6.71,6.71,0,0,0-9.05,2.26,21.17,21.17,0,0,0-1,1.95,4,4,0,0,1,.66-2.14,6.74,6.74,0,0,1,9.56-2.39A4.11,4.11,0,0,1,572,335.16Z" style="fill:#e0e0e0"></path><path d="M588.35,257.4c.25.44,0,6.11,0,6.11L609,264.63v-5.95Z" style="fill:#fff;opacity:0.7000000000000001"></path><path d="M602.61,236.62,570.1,302.93l3.75,2.53,32.74-68A5.24,5.24,0,0,0,602.61,236.62Z" style="fill:#263238"></path><path d="M584.26,201.6a4.49,4.49,0,0,0,.76-4.83,5.21,5.21,0,0,0-4-2.93,6.28,6.28,0,0,0-4.82,1.48,3.43,3.43,0,0,0-1.4,3.23,3.74,3.74,0,0,0,1.29,1.83,8,8,0,0,0,4.64,2.15,4.75,4.75,0,0,0,4.44-2.16" style="fill:#263238"></path><path d="M638.73,431.6l.56,2.62s13.38.28,10.47,1.85c-2.61,1.41-19.73,4.22-23.93,4.83l-1,.13-1.13-6.26Z" style="fill:#136ABB"></path><g style="opacity:0.5"><path d="M630.32,439.8a5.35,5.35,0,0,0-2.58-2.82,5.17,5.17,0,0,0-3.74-.38l.85,4.21Z" style="fill:#fff"></path></g><path d="M645.87,434.58s4.75.38,4.34,1.24-17.61,4.34-25.33,5.21l0-.34,20.09-3.9S645,434.8,645.87,434.58Z" style="fill:#fff;opacity:0.5"></path><path d="M624.6,440.73l.26,0,.76-.11,2.76-.44c2.33-.38,5.54-1,9.07-1.67s6.71-1.43,9-2l2.71-.67.74-.2a.76.76,0,0,0,.25-.08l-.26.05-.74.16-2.73.61c-2.3.52-5.49,1.21-9,1.92s-6.73,1.31-9,1.73l-2.76.5-.74.14Z" style="fill:#263238"></path><path d="M645,437a4.11,4.11,0,0,1,1-2.65,2,2,0,0,0-.89,1.17A2.11,2.11,0,0,0,645,437Z" style="fill:#263238"></path><path d="M640.07,435.67s.21-.28.36-.67.23-.72.18-.74a1.74,1.74,0,0,0-.35.67A1.84,1.84,0,0,0,640.07,435.67Z" style="fill:#263238"></path><path d="M638.72,435.28s.25-.18.46-.46.35-.55.31-.58-.25.18-.46.46S638.68,435.25,638.72,435.28Z" style="fill:#263238"></path><path d="M637.66,434a1.73,1.73,0,0,0,.81-.06,1.81,1.81,0,0,0,.77-.24,1.9,1.9,0,0,0-.81.06A1.81,1.81,0,0,0,637.66,434Z" style="fill:#263238"></path><path d="M637.2,433.06a1.48,1.48,0,0,0,.92.08,1.57,1.57,0,0,0,.88-.3,5.05,5.05,0,0,0-.9.12A5.19,5.19,0,0,0,637.2,433.06Z" style="fill:#263238"></path><path d="M640.32,434.26a2.79,2.79,0,0,0,1-.21,5.3,5.3,0,0,0,1-.43,3.89,3.89,0,0,0,.54-.36.59.59,0,0,0,.18-.35.39.39,0,0,0-.23-.36,1.82,1.82,0,0,0-2.09,1,1.66,1.66,0,0,0-.18.71c0,.18,0,.27,0,.27a2.43,2.43,0,0,1,.27-.91,1.76,1.76,0,0,1,.72-.71,1.54,1.54,0,0,1,1.17-.16c.17.09.15.28,0,.42a2.93,2.93,0,0,1-.5.34,6.68,6.68,0,0,1-.94.46C640.68,434.15,640.31,434.23,640.32,434.26Z" style="fill:#263238"></path><path d="M640.58,434.25a1,1,0,0,0,0-.69,1.48,1.48,0,0,0-.4-.65,1,1,0,0,0-.91-.33.38.38,0,0,0-.21.5,1.05,1.05,0,0,0,.25.4,3.54,3.54,0,0,0,.58.5c.36.23.63.3.63.27s-.22-.13-.55-.38a3.44,3.44,0,0,1-.53-.5c-.17-.18-.34-.53-.1-.62s.53.12.72.28a1.8,1.8,0,0,1,.4.57A5.48,5.48,0,0,1,640.58,434.25Z" style="fill:#263238"></path><path d="M624.07,436.55s.42-.13,1.12-.19a4.82,4.82,0,0,1,4.58,2.34c.36.6.47,1,.51,1a1.11,1.11,0,0,0-.06-.3,4.31,4.31,0,0,0-.33-.78,4.85,4.85,0,0,0-2-1.94,4.77,4.77,0,0,0-2.73-.47,4.13,4.13,0,0,0-.83.19A.72.72,0,0,0,624.07,436.55Z" style="fill:#263238"></path><path d="M631.92,438a8.61,8.61,0,0,0,2.24-.23,8.45,8.45,0,0,0,2.17-.62c0-.05-1,.21-2.21.44S631.91,437.9,631.92,438Z" style="fill:#263238"></path><path d="M629,438.54s.13.2.27.4.24.4.29.38,0-.25-.14-.49S629,438.5,629,438.54Z" style="fill:#263238"></path><path d="M627.57,437.39s.1.18.29.3.36.2.39.15-.1-.18-.29-.3S627.6,437.34,627.57,437.39Z" style="fill:#263238"></path><path d="M625.85,437.08s.22,0,.46,0,.42.11.45.07-.14-.22-.43-.26S625.82,437,625.85,437.08Z" style="fill:#263238"></path><path d="M624.66,437c0,.05.09.11.22.13s.25,0,.26-.05-.09-.11-.22-.13S624.66,437,624.66,437Z" style="fill:#263238"></path></g><g id="freepik--character-2--inject-34"><path d="M347.16,435.27l1.07-8-14.9-2.1-1.69,11.62.92.19c4.08.81,20.79,3.83,23.66,3.39C359.41,439.91,347.16,435.27,347.16,435.27Z" style="fill:#136ABB"></path><g style="opacity:0.30000000000000004"><path d="M337.06,437.48a5.25,5.25,0,0,0-1.45-3.44,5.09,5.09,0,0,0-3.33-1.58l-.59,4.16Z" style="fill:#fff"></path></g><g style="opacity:0.30000000000000004"><path d="M353.11,437.76s4.26,1.9,3.6,2.56-17.66-1.76-25.07-3.49l.07-.32,19.82,3S352.24,437.67,353.11,437.76Z" style="fill:#fff"></path></g><path d="M331.48,436.46a1.23,1.23,0,0,0,.25.07l.73.15,2.69.5c2.28.4,5.43.92,8.92,1.42s6.66.88,9,1.13l2.72.27.74.06h.26l-.25-.05-.74-.09L353,439.6c-2.29-.28-5.46-.68-9-1.18s-6.64-1-8.92-1.37l-2.7-.44-.73-.12Z" style="fill:#263238"></path><path d="M351.49,439.72a5.75,5.75,0,0,1,.69-1.22,6.27,6.27,0,0,1,1.07-.91,2.06,2.06,0,0,0-1.21.79A2,2,0,0,0,351.49,439.72Z" style="fill:#263238"></path><path d="M347.41,436.87s.28-.2.55-.51.45-.59.41-.62-.28.19-.55.5S347.37,436.83,347.41,436.87Z" style="fill:#263238"></path><path d="M346.29,436.06s.29-.08.58-.28.5-.38.47-.43-.28.09-.57.28S346.27,436,346.29,436.06Z" style="fill:#263238"></path><path d="M345.73,434.54a1.69,1.69,0,0,0,.76.21,1.75,1.75,0,0,0,.8,0,1.93,1.93,0,0,0-.77-.21A1.88,1.88,0,0,0,345.73,434.54Z" style="fill:#263238"></path><path d="M345.61,433.51a1.47,1.47,0,0,0,.83.38,1.51,1.51,0,0,0,.91,0,5.35,5.35,0,0,0-.87-.19A6.3,6.3,0,0,0,345.61,433.51Z" style="fill:#263238"></path><path d="M348.1,435.64a2.76,2.76,0,0,0,1,.13,7,7,0,0,0,1.05-.08,2.7,2.7,0,0,0,.62-.16.49.49,0,0,0,.27-.26.39.39,0,0,0-.09-.41,1.77,1.77,0,0,0-2.24.21,1.7,1.7,0,0,0-.4.59.57.57,0,0,0-.06.26,2.55,2.55,0,0,1,.55-.76,1.68,1.68,0,0,1,.89-.41,1.51,1.51,0,0,1,1.13.24c.14.13.05.3-.13.38a2.82,2.82,0,0,1-.57.15,5.94,5.94,0,0,1-1,.12C348.47,435.66,348.1,435.61,348.1,435.64Z" style="fill:#263238"></path><path d="M348.34,435.72a1,1,0,0,0,.21-.65,1.64,1.64,0,0,0-.17-.73,1,1,0,0,0-.72-.6.38.38,0,0,0-.36.4,1.06,1.06,0,0,0,.1.45,2.92,2.92,0,0,0,.37.64c.26.34.48.48.49.46s-.16-.19-.38-.53a3.18,3.18,0,0,1-.32-.64c-.11-.22-.15-.59.1-.6s.45.28.57.49a1.67,1.67,0,0,1,.19.66A4.13,4.13,0,0,1,348.34,435.72Z" style="fill:#263238"></path><path d="M332.36,432.43s.44,0,1.1.2a4.72,4.72,0,0,1,3.46,3.66c.13.67.09,1.1.13,1.1a.88.88,0,0,0,0-.3,3.64,3.64,0,0,0,0-.82,4.6,4.6,0,0,0-1.19-2.44,4.65,4.65,0,0,0-2.36-1.33,4.44,4.44,0,0,0-.82-.1Z" style="fill:#263238"></path><path d="M334.79,426.45a25.23,25.23,0,0,0-.57,3,26.14,26.14,0,0,0-.38,3.07,26,26,0,0,0,.56-3A27.65,27.65,0,0,0,334.79,426.45Z" style="fill:#263238"></path><path d="M339.14,436.29a8.08,8.08,0,0,0,2.14.53,8.58,8.58,0,0,0,2.21.13c0-.05-1-.13-2.18-.31S339.15,436.24,339.14,436.29Z" style="fill:#263238"></path><path d="M336.22,435.88s0,.21.12.45.09.44.15.45.11-.23,0-.5S336.26,435.84,336.22,435.88Z" style="fill:#263238"></path><path d="M335.32,434.35c-.05,0,0,.2.16.38s.27.3.31.27,0-.2-.16-.38S335.36,434.32,335.32,434.35Z" style="fill:#263238"></path><path d="M333.83,433.5c0,.05.2.08.41.19s.35.25.39.22-.05-.25-.31-.38S333.82,433.45,333.83,433.5Z" style="fill:#263238"></path><path d="M332.75,433.05s.05.13.17.2.23.08.25,0-.05-.13-.16-.19S332.78,433,332.75,433.05Z" style="fill:#263238"></path><path d="M387.14,394.73l-4-7-13.08,7.43,5.76,10.24.84-.4c3.72-1.85,18.8-9.67,20.8-11.77C399.68,390.93,387.14,394.73,387.14,394.73Z" style="fill:#136ABB"></path><g style="opacity:0.30000000000000004"><path d="M380.49,402.65a5.17,5.17,0,0,0-3.25-1.84,5.08,5.08,0,0,0-3.6.78l2.07,3.66Z" style="fill:#fff"></path></g><g style="opacity:0.30000000000000004"><path d="M393.38,393.07s4.53-1.09,4.41-.17-15.07,9.38-22,12.54l-.15-.3,17.52-9.73S392.63,393.53,393.38,393.07Z" style="fill:#fff"></path></g><path d="M375.45,405.25l.24-.1.67-.33,2.44-1.25c2.05-1.06,4.86-2.58,7.93-4.31s5.81-3.37,7.78-4.58l2.32-1.45.63-.4.21-.15a.86.86,0,0,0-.23.12l-.64.37-2.36,1.4c-2,1.18-4.73,2.79-7.8,4.53s-5.87,3.26-7.9,4.36l-2.41,1.3-.66.35Z" style="fill:#263238"></path><path d="M393.29,395.61a5.6,5.6,0,0,1-.2-1.38,6.16,6.16,0,0,1,.29-1.37,2,2,0,0,0-.47,1.36A1.93,1.93,0,0,0,393.29,395.61Z" style="fill:#263238"></path><path d="M388.31,395.84c.06,0,.11-.32.13-.73a1.65,1.65,0,0,0-.05-.75,3.1,3.1,0,0,0-.08,1.48Z" style="fill:#263238"></path><path d="M386.94,395.88c.05,0,.17-.24.28-.57s.17-.61.12-.62-.18.24-.29.57S386.89,395.87,386.94,395.88Z" style="fill:#263238"></path><path d="M385.57,395a1.86,1.86,0,0,0,.73-.3c.38-.21.67-.42.64-.46s-.35.09-.73.3S385.54,395,385.57,395Z" style="fill:#263238"></path><path d="M384.84,394.29a1.5,1.5,0,0,0,.89-.21,1.65,1.65,0,0,0,.73-.55,5.22,5.22,0,0,0-.81.38A4.86,4.86,0,0,0,384.84,394.29Z" style="fill:#263238"></path><path d="M388.11,394.45A2.82,2.82,0,0,0,389,394a5.39,5.39,0,0,0,.78-.71,3,3,0,0,0,.4-.5.53.53,0,0,0,.06-.38.39.39,0,0,0-.32-.26,1.77,1.77,0,0,0-1.65,1.53,1.59,1.59,0,0,0,0,.72.61.61,0,0,0,.11.24,2.72,2.72,0,0,1,0-.94,1.81,1.81,0,0,1,.46-.87,1.46,1.46,0,0,1,1-.5c.19,0,.22.21.13.38a3.25,3.25,0,0,1-.36.47,7,7,0,0,1-.74.72C388.42,394.24,388.1,394.42,388.11,394.45Z" style="fill:#263238"></path><path d="M388.35,394.37a.94.94,0,0,0-.23-.64,1.57,1.57,0,0,0-.58-.48.94.94,0,0,0-.94,0,.39.39,0,0,0,0,.54,1,1,0,0,0,.35.29,3.42,3.42,0,0,0,.69.29c.41.11.67.09.67.06s-.25-.05-.63-.19a3,3,0,0,1-.64-.3c-.22-.11-.48-.39-.29-.55a.86.86,0,0,1,.76,0,1.5,1.5,0,0,1,.55.41A3.15,3.15,0,0,1,388.35,394.37Z" style="fill:#263238"></path><path d="M373.69,401.52a10.93,10.93,0,0,1,1-.52,4.75,4.75,0,0,1,5,.79c.52.45.75.82.78.8a.79.79,0,0,0-.15-.27,4.18,4.18,0,0,0-.54-.62,4.6,4.6,0,0,0-2.43-1.2,4.71,4.71,0,0,0-2.69.38,5.19,5.19,0,0,0-.71.43C373.76,401.43,373.68,401.51,373.69,401.52Z" style="fill:#263238"></path><path d="M372,395.3a24.5,24.5,0,0,0,1.41,2.75,24.92,24.92,0,0,0,1.57,2.67,26.72,26.72,0,0,0-1.41-2.75A27.07,27.07,0,0,0,372,395.3Z" style="fill:#263238"></path><path d="M381.42,400.44a12.35,12.35,0,0,0,3.84-2.13c0-.05-.85.49-1.91,1.08S381.39,400.39,381.42,400.44Z" style="fill:#263238"></path><path d="M378.85,401.89c0,.05.17.14.37.29s.34.29.39.26-.05-.24-.28-.41S378.86,401.84,378.85,401.89Z" style="fill:#263238"></path><path d="M377.2,401.23s.15.14.36.2.4.07.41,0-.15-.13-.36-.19S377.21,401.19,377.2,401.23Z" style="fill:#263238"></path><path d="M375.51,401.47s.2-.06.43-.1.43,0,.45-.07-.2-.17-.48-.11S375.47,401.44,375.51,401.47Z" style="fill:#263238"></path><path d="M374.37,401.77c0,.05.12.07.26.05s.23-.07.22-.12-.12-.08-.25-.06S374.37,401.72,374.37,401.77Z" style="fill:#263238"></path><path d="M336.88,283.5s5.78,23.23,7.59,22.24c9.84-5.39,19.59-15.32,23.24-19.23.14-.53.28-1.12.42-1.79a7.25,7.25,0,0,0,.07-2.37,10.63,10.63,0,0,0-.67-2.87c-.4-.81.36-1.7,1.08-1.33s1.89,2.58,2,5.5,2.8-.75,3.8-2.08,4.28-5.27,4.92-5.27c.94,0,1.12,1,.1,2.32s-3.84,5.42-3.13,5.93,5.69-6.31,5.69-6.31.84-1.64,1.68-1.07c1.51,1-4.32,7.85-4.89,8.48-.4.45.35,1,.76.53s4.82-6.91,6.37-5.89c1.19.78-4.74,5.67-4.94,7.52s4.14-4.18,5.24-3.38c.42.29.68.57-2.29,3.66a93.1,93.1,0,0,1-7.88,6.7c-7.88,8.8-37,37.11-42.95,21.93-7.08-18.06-6-29.73-6-29.73Z" style="fill:#ffbe9d"></path><path d="M295.42,291.83l1.78,18.37-2.1,12.85-3,7.08,39.3-4.22-3.26-16.49.31-5.59a108.85,108.85,0,0,0,3,10.87c2.07,5.79,5.91,7,5.91,7,13,2.87,38-25.11,38-25.11l-8.9-10.75L345.33,304a1,1,0,0,0,0-1.29c-.54-.65-1.51,1.29-1.51,1.29l-4.94-17.75h0s-1.44-15.94-17.06-16.7h-13a29.58,29.58,0,0,0-23.37,24.74,46.42,46.42,0,0,0-.42,5.5c-.37,22,10.41,26.9,10.41,26.9l6-18.06Z" style="fill:#455a64"></path><path d="M327,304.44a5.7,5.7,0,0,0,1.51-1.74A12.09,12.09,0,0,0,329.75,292a5.69,5.69,0,0,0-1.08-2c-.07,0,.35.81.76,2.14a13.32,13.32,0,0,1,.5,5.34,13.15,13.15,0,0,1-1.69,5.09C327.55,303.73,327,304.39,327,304.44Z" style="fill:#263238"></path><path d="M330.79,322a16.12,16.12,0,0,1-1.79-.93,49.88,49.88,0,0,0-12.72-4.79c-1.49-.33-3.08-.62-4.73-.82-.82-.1-1.67-.19-2.53-.24s-1.73-.06-2.64-.21a3.89,3.89,0,0,1-2.44-1.27,5.81,5.81,0,0,1-1.11-2.41c-.36-1.67-.5-3.27-.68-4.81a78.81,78.81,0,0,1-.41-8.18c0-2.33.12-4.21.23-5.51,0-.65.1-1.16.15-1.5a1.74,1.74,0,0,1,.09-.51,19.25,19.25,0,0,1,0,2c0,1.3-.1,3.18-.06,5.5s.18,5.08.52,8.13c.18,1.52.35,3.15.7,4.74a5.12,5.12,0,0,0,1,2.19,3.35,3.35,0,0,0,2.13,1.1c.84.13,1.72.13,2.59.2s1.72.15,2.55.25a44.66,44.66,0,0,1,4.78.87,46.36,46.36,0,0,1,7.78,2.56,41,41,0,0,1,4.93,2.51c.56.32,1,.61,1.27.8A2.53,2.53,0,0,1,330.79,322Z" style="fill:#263238"></path><path d="M301.08,317.85a4.7,4.7,0,0,1,4.19-3.6c0,.15-1.19.51-2.34,1.51S301.22,317.91,301.08,317.85Z" style="fill:#263238"></path><path d="M315.27,234.75a12.22,12.22,0,0,1,7.72-.12,7.55,7.55,0,0,1,5,5.59c.21,1.29,0,2.68.64,3.82s2,1.84,3.07,2.75a6.39,6.39,0,0,1,2,5.86,13.63,13.63,0,0,0-.66,3.47,5.51,5.51,0,0,0,1.65,3.14,13.21,13.21,0,0,1,2.27,2.8,3.12,3.12,0,0,1-.14,3.4c-.88,1-2.43,1-3.77,1a115.21,115.21,0,0,0-14,.79" style="fill:#136ABB"></path><path d="M321.83,269.34c0-2.29-.06-4.25-.06-4.25s5.59-.71,5.84-6.41-.33-18.86-.33-18.86L317,234.88l-9,10.24.32,24.44a6.75,6.75,0,0,0,6.71,6.67h0A6.75,6.75,0,0,0,321.83,269.34Z" style="fill:#ffbe9d"></path><path d="M325.84,249.43a.72.72,0,1,1-.73-.72A.72.72,0,0,1,325.84,249.43Z" style="fill:#263238"></path><path d="M327,248.62c-.09.1-.62-.35-1.38-.38s-1.34.36-1.42.25.05-.22.3-.4a1.84,1.84,0,0,1,2.24.1C327,248.39,327.05,248.58,327,248.62Z" style="fill:#263238"></path><path d="M317.5,249.43a.71.71,0,1,1-.72-.72A.72.72,0,0,1,317.5,249.43Z" style="fill:#263238"></path><path d="M318.52,248.77c-.09.09-.63-.36-1.39-.39s-1.34.36-1.42.26.05-.22.3-.4a1.86,1.86,0,0,1,1.14-.33,1.83,1.83,0,0,1,1.1.43C318.48,248.54,318.56,248.72,318.52,248.77Z" style="fill:#263238"></path><path d="M321.39,255.36a4.44,4.44,0,0,1,1.25-.19c.2,0,.39,0,.42-.19a1.15,1.15,0,0,0-.12-.63c-.18-.52-.36-1-.55-1.62a30.43,30.43,0,0,1-1.24-4.23,29.18,29.18,0,0,1,1.55,4.12c.18.57.36,1.11.53,1.63a1.34,1.34,0,0,1,.09.83.5.5,0,0,1-.33.29,1.39,1.39,0,0,1-.33,0A5.1,5.1,0,0,1,321.39,255.36Z" style="fill:#263238"></path><path d="M321.77,265.09a13.55,13.55,0,0,1-7.4-2.43s1.74,4.16,7.31,3.83Z" style="fill:#eb996e"></path><path d="M294.72,262.71a6.25,6.25,0,0,0,1.55-1.7c.53-1.14,0-2.48-.58-3.6s-1.27-2.3-1.05-3.54c.38-2.18,3.2-3.08,4-5.13.73-1.84-.36-4.11.62-5.84.79-1.39,2.62-1.84,3.67-3.06a14.35,14.35,0,0,0,1.57-3.36,6.84,6.84,0,0,1,11-1.92A12,12,0,0,1,324.8,236a7,7,0,0,1,2.93,3,9.1,9.1,0,0,1,.55,3.71l0,2.71a1.26,1.26,0,0,1-.12.67,1.22,1.22,0,0,1-1,.37l-4.18.16a1.59,1.59,0,0,1-.84-.13,1.48,1.48,0,0,1-.65-1.33c0-.4,0-1.2,0-1.43-.19.9-.36,1.07-.5,1.63a2.15,2.15,0,0,1-.9,1.45,2.56,2.56,0,0,1-1.2.2l-1.81,0a1.58,1.58,0,0,1-.86-.22,1.41,1.41,0,0,1-.31-1.34,9.71,9.71,0,0,0,.28-1.87c-.54,1.06-.8,2.38-1.46,2.56a4.68,4.68,0,0,1-2-.14c-.67-.21-1.15-.39-1.64-.54a4.7,4.7,0,0,0,.21.82c.51,1.37,1.65,2.69,1.25,4.1s-1.8,1.9-2.53,3a4.75,4.75,0,0,0-.16,4.18,40.55,40.55,0,0,1,1.54,4,3.88,3.88,0,0,1-1.06,4,5.28,5.28,0,0,1-3.19.72L297,266.3a5.47,5.47,0,0,1-1.94-.21,1.91,1.91,0,0,1-1.3-1.36A2.45,2.45,0,0,1,294.72,262.71Z" style="fill:#136ABB"></path><path d="M332.45,259.62s-.1-.1-.21-.34a3.09,3.09,0,0,1-.24-1.13,7.71,7.71,0,0,1,1.32-4,11.27,11.27,0,0,0,1.15-2.58,4.15,4.15,0,0,0-.33-3.05,4.25,4.25,0,0,0-1-1.32,5.13,5.13,0,0,0-1.56-.87,5.94,5.94,0,0,1-1.76-1,2.69,2.69,0,0,1-.83-2c0-.71.05-1.37,0-2a6.18,6.18,0,0,0-.35-1.82,7.65,7.65,0,0,0-1.91-3,9,9,0,0,0-5.4-2.47,13.26,13.26,0,0,0-4.11.22c-1,.19-1.48.36-1.49.32s.12-.08.36-.17a9.52,9.52,0,0,1,1.09-.35,12,12,0,0,1,4.19-.38,9.29,9.29,0,0,1,5.7,2.48,8.34,8.34,0,0,1,2.06,3.13,7.17,7.17,0,0,1,.38,2c0,.68-.05,1.35,0,2a2.18,2.18,0,0,0,.66,1.61,5.7,5.7,0,0,0,1.61.89,5.63,5.63,0,0,1,1.68,1,4.93,4.93,0,0,1,1.15,1.48,4.6,4.6,0,0,1,.32,3.39,11.16,11.16,0,0,1-1.25,2.64,7.84,7.84,0,0,0-1.43,3.81A4.68,4.68,0,0,0,332.45,259.62Z" style="fill:#136ABB"></path><path d="M292.92,252.29a4.84,4.84,0,0,0,1.08.43,3.1,3.1,0,0,0,2.82-.86,4.06,4.06,0,0,0,.69-4.26,4.41,4.41,0,0,1-.32-2.91,4.25,4.25,0,0,1,2.35-2.12,7.27,7.27,0,0,0,2.49-1.49,5,5,0,0,0,1-2.46,10.15,10.15,0,0,1,.67-2.52,4.93,4.93,0,0,1,1.46-1.78,5.09,5.09,0,0,1,3.09-1,4.17,4.17,0,0,1,.89.11,1.21,1.21,0,0,1,.29.11s-.43-.06-1.17,0a5,5,0,0,0-2.87,1.13,4.56,4.56,0,0,0-1.29,1.67,10.29,10.29,0,0,0-.6,2.43,5.41,5.41,0,0,1-1.08,2.71,7.72,7.72,0,0,1-2.66,1.62,3.85,3.85,0,0,0-2.09,1.83,4,4,0,0,0,.3,2.58,4.43,4.43,0,0,1-.89,4.67,3.27,3.27,0,0,1-3.13.8,2.74,2.74,0,0,1-.81-.4C293,252.39,292.91,252.3,292.92,252.29Z" style="fill:#136ABB"></path><path d="M321.12,257.37a1.53,1.53,0,0,0-.89-1.1,1.18,1.18,0,0,0-1,0,.85.85,0,0,0-.45.84,1,1,0,0,0,.79.74,2.77,2.77,0,0,0,1.14-.08.73.73,0,0,0,.29-.11.28.28,0,0,0,.13-.27" style="fill:#eb996e"></path><path d="M319.22,255.33c.14,0,.15.87.84,1.52s1.56.61,1.57.75-.2.18-.58.18a2,2,0,0,1-1.35-.55,2.06,2.06,0,0,1-.63-1.32C319.05,255.53,319.15,255.32,319.22,255.33Z" style="fill:#263238"></path><path d="M292.74,329.61s58.18-12.19,63.81-9.52S387.69,391,387.69,391l-18.3,11-24.65-60.59s-40.73,14.87-47.85,13.4S292.74,329.61,292.74,329.61Z" style="fill:#263238"></path><path d="M318.74,333c.89.3,34.54,14.13,36.91,18.58S352,432.87,352,432.87l-21.08-1.76,3.35-66.84-37.36-9.46Z" style="fill:#263238"></path><path d="M296.7,355a1.72,1.72,0,0,0,.5-.05l1.44-.24,5.28-1c4.45-.85,10.6-2,17.32-3.72,3.35-.85,6.52-1.77,9.37-2.7s5.39-1.87,7.48-2.75,3.77-1.62,4.9-2.2l1.31-.66a3.07,3.07,0,0,0,.44-.25,1.51,1.51,0,0,0-.48.17l-1.34.58c-1.15.53-2.84,1.24-4.95,2.07s-4.64,1.73-7.48,2.65-6,1.8-9.37,2.65c-6.69,1.68-12.83,2.91-17.26,3.84l-5.25,1.11-1.42.33A2.46,2.46,0,0,0,296.7,355Z" style="fill:#455a64"></path><path d="M355.65,368.57a5.78,5.78,0,0,0,.18-1.1c.08-.81.19-1.82.32-3s.26-2.83.42-4.5a20.32,20.32,0,0,0,0-5.57,8.72,8.72,0,0,0-2.8-4.81A14.43,14.43,0,0,0,350,347.1a29,29,0,0,0-2.84-1.12,5,5,0,0,0-1.08-.31c0,.08,1.48.61,3.78,1.72a15.33,15.33,0,0,1,3.69,2.47,8.5,8.5,0,0,1,2.63,4.6,21.17,21.17,0,0,1,0,5.45c-.12,1.67-.23,3.19-.32,4.5s-.13,2.23-.18,3A5.37,5.37,0,0,0,355.65,368.57Z" style="fill:#455a64"></path><path d="M338.86,362.23a6.84,6.84,0,0,0-2.36.79,7.06,7.06,0,0,0-2.17,1.2,6.82,6.82,0,0,0,2.35-.79A7.2,7.2,0,0,0,338.86,362.23Z" style="fill:#455a64"></path><path d="M337.17,360.21a24.06,24.06,0,0,0-1.53,2.16,22.54,22.54,0,0,0-1.66,2.06,5,5,0,0,0,2-1.79A4.84,4.84,0,0,0,337.17,360.21Z" style="fill:#455a64"></path></g><g id="freepik--character-1--inject-34"><path d="M234.06,437l-.57-8,15-1.17.95,11.71-.92.13c-4.12.56-21,2.51-23.83,1.89C221.54,440.88,234.06,437,234.06,437Z" style="fill:#136ABB"></path><g style="opacity:0.30000000000000004"><path d="M244,439.87a5.21,5.21,0,0,1,1.66-3.35,5,5,0,0,1,3.42-1.36l.33,4.19Z" style="fill:#fff"></path></g><g style="opacity:0.30000000000000004"><path d="M228,439.13s-4.37,1.64-3.76,2.33,17.74-.65,25.24-1.9l-.05-.33-20,1.73S228.83,439.1,228,439.13Z" style="fill:#fff"></path></g><path d="M249.63,439.2l-.26.05-.73.1-2.72.33c-2.3.27-5.47.59-9,.86s-6.7.46-9,.56l-2.74.1-.74,0a1,1,0,0,1-.26,0l.26,0,.74-.05,2.73-.15c2.31-.14,5.49-.34,9-.62s6.69-.58,9-.81l2.72-.27.74-.07Z" style="fill:#263238"></path><path d="M229.46,441.19a6.79,6.79,0,0,0-.62-1.26,6,6,0,0,0-1-1,2.47,2.47,0,0,1,1.63,2.23Z" style="fill:#263238"></path><path d="M233.7,438.6s-.27-.21-.51-.54-.42-.61-.37-.64.27.21.51.53S233.75,438.57,233.7,438.6Z" style="fill:#263238"></path><path d="M234.87,437.87s-.28-.1-.56-.32-.47-.41-.44-.45.28.1.55.31S234.9,437.83,234.87,437.87Z" style="fill:#263238"></path><path d="M235.53,436.39a1.88,1.88,0,0,1-.78.16,1.75,1.75,0,0,1-.79,0,1.83,1.83,0,0,1,.78-.16A1.77,1.77,0,0,1,235.53,436.39Z" style="fill:#263238"></path><path d="M235.71,435.37a1.51,1.51,0,0,1-.85.32,1.48,1.48,0,0,1-.91-.05,5.46,5.46,0,0,1,.88-.13A4.83,4.83,0,0,1,235.71,435.37Z" style="fill:#263238"></path><path d="M233.09,437.33a2.58,2.58,0,0,1-1,.07,5.34,5.34,0,0,1-1-.14,2.56,2.56,0,0,1-.61-.2.51.51,0,0,1-.26-.28.39.39,0,0,1,.11-.4,1.78,1.78,0,0,1,2.23.35,1.64,1.64,0,0,1,.36.62.47.47,0,0,1,.05.26,2.68,2.68,0,0,0-.5-.79,1.78,1.78,0,0,0-.87-.47,1.43,1.43,0,0,0-1.14.17c-.15.12-.07.3.11.39a2.45,2.45,0,0,0,.56.18,6.5,6.5,0,0,0,1,.19C232.72,437.33,233.09,437.3,233.09,437.33Z" style="fill:#263238"></path><path d="M232.85,437.4a1,1,0,0,1-.17-.66,1.66,1.66,0,0,1,.21-.72,1,1,0,0,1,.77-.56.39.39,0,0,1,.33.42,1.19,1.19,0,0,1-.13.45,3.17,3.17,0,0,1-.41.62c-.28.32-.51.45-.52.43s.18-.19.42-.51a3.78,3.78,0,0,0,.36-.61c.11-.22.17-.59-.07-.62s-.47.26-.6.46a1.65,1.65,0,0,0-.23.65A3.34,3.34,0,0,0,232.85,437.4Z" style="fill:#263238"></path><path d="M249,435.12s-.43,0-1.1.13a4.75,4.75,0,0,0-2.34,1.18,4.94,4.94,0,0,0-1.35,2.26c-.18.66-.16,1.09-.2,1.09a1,1,0,0,1,0-.3,3.72,3.72,0,0,1,.1-.83,4.61,4.61,0,0,1,1.34-2.35,4.72,4.72,0,0,1,2.44-1.18,3.63,3.63,0,0,1,.83,0A.88.88,0,0,1,249,435.12Z" style="fill:#263238"></path><path d="M247,429a28.1,28.1,0,0,1,.37,3.07,27.8,27.8,0,0,1,.19,3.09,25.43,25.43,0,0,1-.37-3.07A25.08,25.08,0,0,1,247,429Z" style="fill:#263238"></path><path d="M242,438.55a8,8,0,0,1-2.17.39,9,9,0,0,1-2.21,0c0-.06,1-.07,2.2-.18S242,438.5,242,438.55Z" style="fill:#263238"></path><path d="M244.93,438.32s-.06.21-.14.44-.12.44-.18.44-.09-.23,0-.5S244.9,438.28,244.93,438.32Z" style="fill:#263238"></path><path d="M245.93,436.85s0,.2-.19.37-.29.28-.32.25,0-.2.19-.37S245.9,436.82,245.93,436.85Z" style="fill:#263238"></path><path d="M247.47,436.1s-.21.06-.42.16-.36.22-.41.19.07-.25.34-.36S247.48,436.05,247.47,436.1Z" style="fill:#263238"></path><path d="M248.57,435.71c0,.05,0,.13-.17.19s-.24.07-.26,0,.06-.13.18-.18S248.55,435.67,248.57,435.71Z" style="fill:#263238"></path><path d="M200.74,437l.2-8,15.05.28L215.81,441l-.93.05c-4.16.15-21.14.48-23.9-.42C187.91,439.67,200.74,437,200.74,437Z" style="fill:#136ABB"></path><g style="opacity:0.30000000000000004"><path d="M210.36,440.81a5.26,5.26,0,0,1,2-3.17,5.12,5.12,0,0,1,3.54-1l-.08,4.21Z" style="fill:#fff"></path></g><g style="opacity:0.30000000000000004"><path d="M194.47,438.54s-4.51,1.21-4,2,17.72,1.06,25.3.53v-.33l-20-.2S195.34,438.59,194.47,438.54Z" style="fill:#fff"></path></g><path d="M216,440.69a.76.76,0,0,1-.26,0l-.74,0-2.74.06c-2.31,0-5.5.06-9,0s-6.71-.19-9-.31l-2.73-.16-.74-.06-.26,0h.26l.74,0,2.74.11c2.3.09,5.49.19,9,.26s6.71.06,9,.06H216Z" style="fill:#263238"></path><path d="M195.76,440.74a5.87,5.87,0,0,0-.49-1.32,5.53,5.53,0,0,0-.91-1.06,2,2,0,0,1,1.07,1A2,2,0,0,1,195.76,440.74Z" style="fill:#263238"></path><path d="M200.24,438.57s-.25-.24-.46-.59-.35-.65-.31-.68.25.23.46.58A1.69,1.69,0,0,1,200.24,438.57Z" style="fill:#263238"></path><path d="M201.47,437.94s-.27-.12-.52-.36-.44-.46-.4-.5.27.13.52.37S201.5,437.91,201.47,437.94Z" style="fill:#263238"></path><path d="M202.27,436.54a1.77,1.77,0,0,1-.79.08,1.79,1.79,0,0,1-.79-.09,1.83,1.83,0,0,1,.79-.09A1.75,1.75,0,0,1,202.27,436.54Z" style="fill:#263238"></path><path d="M202.55,435.54a1.52,1.52,0,0,1-.88.24,1.46,1.46,0,0,1-.9-.14,5.25,5.25,0,0,1,.89,0A4.61,4.61,0,0,1,202.55,435.54Z" style="fill:#263238"></path><path d="M199.75,437.24a2.78,2.78,0,0,1-1,0,5.45,5.45,0,0,1-1-.25,2.82,2.82,0,0,1-.58-.25.53.53,0,0,1-.24-.3.41.41,0,0,1,.16-.39,1.78,1.78,0,0,1,2.18.56,1.71,1.71,0,0,1,.3.65c0,.17,0,.26,0,.26a2.52,2.52,0,0,0-.42-.83,1.72,1.72,0,0,0-.82-.55,1.48,1.48,0,0,0-1.15.06c-.16.11-.1.29.07.39a2.65,2.65,0,0,0,.54.25,6,6,0,0,0,1,.27C199.39,437.21,199.75,437.21,199.75,437.24Z" style="fill:#263238"></path><path d="M199.5,437.29a1,1,0,0,1-.1-.68,1.61,1.61,0,0,1,.28-.7,1,1,0,0,1,.81-.48.39.39,0,0,1,.29.46,1.11,1.11,0,0,1-.17.43,2.8,2.8,0,0,1-.47.57,1.31,1.31,0,0,1-.56.38s.2-.17.47-.47a3.51,3.51,0,0,0,.42-.57c.13-.2.23-.57,0-.62s-.49.21-.64.4a1.54,1.54,0,0,0-.29.63A3.52,3.52,0,0,0,199.5,437.29Z" style="fill:#263238"></path><path d="M215.8,436.57s-.43-.05-1.11,0a4.8,4.8,0,0,0-2.44,1,4.9,4.9,0,0,0-1.56,2.12,11.11,11.11,0,0,0-.3,1.07.83.83,0,0,1,0-.31,4.07,4.07,0,0,1,.18-.81,4.57,4.57,0,0,1,4.11-3.15,4,4,0,0,1,.83,0A.92.92,0,0,1,215.8,436.57Z" style="fill:#263238"></path><path d="M214.36,430.28a26.87,26.87,0,0,1,.07,3.09,26.47,26.47,0,0,1-.11,3.1,27,27,0,0,1-.07-3.1A24,24,0,0,1,214.36,430.28Z" style="fill:#263238"></path><path d="M208.5,439.31a8.51,8.51,0,0,1-2.2.18,8.29,8.29,0,0,1-2.2-.22s1,0,2.2,0S208.49,439.26,208.5,439.31Z" style="fill:#263238"></path><path d="M211.44,439.36s-.08.21-.18.43-.17.42-.22.42-.07-.24.05-.5S211.41,439.32,211.44,439.36Z" style="fill:#263238"></path><path d="M212.58,438s-.06.19-.22.34-.32.26-.35.22.06-.19.22-.35S212.55,438,212.58,438Z" style="fill:#263238"></path><path d="M214.18,437.4c0,.05-.21,0-.43.11s-.39.19-.42.16.09-.24.36-.33S214.2,437.35,214.18,437.4Z" style="fill:#263238"></path><path d="M215.32,437.12c0,.05-.07.12-.2.17s-.24,0-.26,0,.07-.12.2-.16S215.3,437.07,215.32,437.12Z" style="fill:#263238"></path><path d="M213.21,336.51a228.88,228.88,0,0,1,39.85-.5l-16.84,24.17-15.2.06-3.18,74.31H197.68l1.92-82.88a15.66,15.66,0,0,1,13.61-15.16Z" style="fill:#263238"></path><path d="M218.51,428.82a103,103,0,0,1-10.45.26,102.68,102.68,0,0,1-10.44-.26c0-.14,4.67-.26,10.44-.26S218.51,428.68,218.51,428.82Z" style="fill:#455a64"></path><path d="M226.49,345.26a7.94,7.94,0,0,1-1-.06c-.65-.05-1.6-.13-2.82-.17a36.28,36.28,0,0,0-4.45.08,15.42,15.42,0,0,0-2.72.45,4.86,4.86,0,0,0-2.61,1.42,4.05,4.05,0,0,0-.68,1.45c-.18.54-.32,1.1-.46,1.68a26,26,0,0,0-.58,3.65c-.23,2.57-.44,5.32-.64,8.21-.4,5.78-.69,12.15-.93,18.84-.45,13.38-1,25.5-1.33,34.26-.2,4.35-.36,7.89-.47,10.38-.07,1.19-.12,2.14-.16,2.82,0,.3,0,.54,0,.74a1.08,1.08,0,0,1,0,.25,1.33,1.33,0,0,1,0-.26c0-.19,0-.43,0-.73,0-.69,0-1.63.05-2.83.08-2.49.18-6,.31-10.38.3-8.81.72-20.91,1.18-34.27.24-6.69.54-13.07,1-18.86.21-2.89.44-5.64.69-8.21a26.44,26.44,0,0,1,.62-3.7q.21-.88.48-1.71a4.6,4.6,0,0,1,.77-1.57,5.23,5.23,0,0,1,2.8-1.5,16.28,16.28,0,0,1,2.79-.42,33,33,0,0,1,4.48,0c1.23.07,2.18.18,2.82.26l.73.11Z" style="fill:#455a64"></path><path d="M250.21,362.09l1.46,71.36-23.32,1.14s-3.71-69.91-1.86-89.75c1.27-13.58,53.08-7.74,53.08-7.74.75,27-29.36,25-29.36,25" style="fill:#263238"></path><path d="M251.67,427.82a21.68,21.68,0,0,1-3.32.35c-2.06.15-4.91.32-8,.48s-6,.27-8.06.33a21.51,21.51,0,0,1-3.34,0,20.35,20.35,0,0,1,3.32-.36c2.06-.15,4.9-.32,8.05-.48s6-.27,8-.33A19.39,19.39,0,0,1,251.67,427.82Z" style="fill:#455a64"></path><path d="M274.54,336.58a.75.75,0,0,1,0,.31c0,.21,0,.51-.1.91a10,10,0,0,1-1.22,3.27,10.05,10.05,0,0,1-7.31,4.84A32.54,32.54,0,0,1,262,346H248.26c-.84,0-1.72,0-2.57,0a6.58,6.58,0,0,0-6,4.37,7.35,7.35,0,0,0-.41,2.7V356c0,3.89,0,7.92,0,12,0,16.49-.06,31.41-.08,42.26,0,5.38-.06,9.74-.08,12.8,0,1.49,0,2.65,0,3.48,0,.38,0,.68,0,.91a1.3,1.3,0,0,1,0,.31,1.3,1.3,0,0,1,0-.31c0-.23,0-.53,0-.91,0-.83,0-2-.05-3.48,0-3.06-.05-7.42-.08-12.8,0-10.85,0-25.77-.08-42.26V356c0-1,0-1.94,0-2.89a7.77,7.77,0,0,1,.44-2.87,7.13,7.13,0,0,1,3.77-4.05,7,7,0,0,1,2.65-.62c.88,0,1.73,0,2.58,0l4.93,0,8.84.05a34.07,34.07,0,0,0,3.83-.08A9.86,9.86,0,0,0,273,341a10.33,10.33,0,0,0,1.29-3.18c.08-.39.11-.69.15-.89A3,3,0,0,1,274.54,336.58Z" style="fill:#455a64"></path><path d="M250.51,356.1a11.89,11.89,0,0,1,.06,3.47,12,12,0,0,1-.45,3.44,11.28,11.28,0,0,1-.07-3.47A11.82,11.82,0,0,1,250.51,356.1Z" style="fill:#455a64"></path><path d="M251.41,336a12,12,0,0,1-1.69.19l-4.63.34c-2,.15-4.27.36-6.82.76a20.2,20.2,0,0,0-7.76,2.82,6.48,6.48,0,0,0-2.65,3.16,19.91,19.91,0,0,0-.82,3.91c-.3,2.56-.33,4.89-.38,6.85s-.09,3.54-.15,4.64c0,.55-.07,1-.1,1.26a1.23,1.23,0,0,1-.08.44,12.75,12.75,0,0,1,0-1.71c0-1.18,0-2.74,0-4.64a67.22,67.22,0,0,1,.27-6.89,19.5,19.5,0,0,1,.82-4,7,7,0,0,1,2.84-3.42,20,20,0,0,1,8-2.86c2.57-.38,4.91-.55,6.87-.66s3.54-.15,4.64-.18A10.2,10.2,0,0,1,251.41,336Z" style="fill:#455a64"></path><path d="M217,294.87s4.51,30.61,19.08,29.62l-.88-16.6L222.37,296.1Z" style="fill:#eb996e"></path><path d="M279.72,336.84l-3.19-25.16,3.29-25.74c-2.16-12-19-12.87-19-12.87l-13.25-.22s-11.13-1.62-15.19,5.87l-7.49,26.83s5.16.74,10,.91l.33,2.93h.08l1.4,26.46Z" style="fill:#136ABB"></path><path d="M260.91,272.71a1.94,1.94,0,0,1-.09.78,6.58,6.58,0,0,1-3.08,4.29,7.17,7.17,0,0,1-3.8,1.07,7.06,7.06,0,0,1-6.11-3.31,6,6,0,0,1-.72-2,1.84,1.84,0,0,1-.05-.79,13.44,13.44,0,0,0,1.09,2.64,6.89,6.89,0,0,0,5.79,3,7,7,0,0,0,5.78-3A16.52,16.52,0,0,0,260.91,272.71Z" style="fill:#263238"></path><path d="M236,284.45a40.24,40.24,0,0,1,.26,6.41,40.24,40.24,0,0,1-.26,6.41,38.87,38.87,0,0,1-.26-6.41A38.87,38.87,0,0,1,236,284.45Z" style="fill:#263238"></path><path d="M210.91,271.81c.4.47,14.89,19.85,14.89,19.85l-2,1.15-14.87-19.12Z" style="fill:#263238"></path><path d="M269.11,287.13S253.87,309.07,253,309.5c-1.81.85-22.66-17.17-24.65-18.89-.27-.37-.84-1.14-2-2.68,0,0-1.64-7.53-3.4-6.95s1,3.83-.18,6.69-6.38-4-6.59-4.58l-1.35-1.76s-1.42,4-1.32,5.69c.31,5.37,5.39,11.76,5.39,11.76s22.82,28.27,38.45,29.15c7.19.4,23.29-32.39,23.29-32.39Z" style="fill:#ffbe9d"></path><path d="M216.07,288a6,6,0,0,1-1.2-1.87,6.12,6.12,0,0,1-.76-2.1,12.48,12.48,0,0,1,1,2A11.55,11.55,0,0,1,216.07,288Z" style="fill:#eb996e"></path><path d="M272.64,276.42s15.16,6.4,3.57,33.18l-18.34-10.81Z" style="fill:#136ABB"></path><path d="M273,276.9a1.85,1.85,0,0,1-.51.09,5.6,5.6,0,0,0-1.41.26,9.42,9.42,0,0,0-4.36,2.89c-3.08,3.33-5.65,9.13-8.27,15.52-.39.95-.79,1.9-1.16,2.79l-.11-.32c5.46,3,10.2,5.83,13.53,8,1.67,1.08,3,2,3.88,2.61l1,.74a1.58,1.58,0,0,1,.33.29,12.71,12.71,0,0,1-1.46-.87l-3.95-2.47c-3.37-2.08-8.14-4.86-13.6-7.83l-.2-.11.09-.22,1.15-2.79c2.62-6.39,5.26-12.23,8.49-15.57a9.19,9.19,0,0,1,4.56-2.83,5,5,0,0,1,1.47-.18A2,2,0,0,1,273,276.9Z" style="fill:#263238"></path><path d="M254,278.45h0a7,7,0,0,1-7-7.08c0-2.44.06-4.54.06-4.54s-5.63-.53-6-6.1-.24-18.43-.24-18.43h0a19.41,19.41,0,0,1,19.63,1.25l.86.58L261,271.52A7,7,0,0,1,254,278.45Z" style="fill:#ffbe9d"></path><path d="M246.87,257.3a3.74,3.74,0,0,1-1.26.12,1.47,1.47,0,0,1-.35,0,.53.53,0,0,1-.36-.3,1.24,1.24,0,0,1,.06-.84c.15-.52.31-1,.47-1.61a22.47,22.47,0,0,1,1.48-4.05,22.19,22.19,0,0,1-1.06,4.18c-.18.55-.35,1.08-.51,1.6a1,1,0,0,0-.11.58c0,.11.18.15.38.16A3.6,3.6,0,0,1,246.87,257.3Z" style="fill:#263238"></path><path d="M249.42,258c.77-.52-2.13,1.31-3.7,1.33a2.13,2.13,0,0,0,2.56.69C249.91,259.3,249.42,258,249.42,258Z" style="fill:#fff"></path><path d="M247,266.75a13,13,0,0,0,7.14-2.52s-1.47,4.12-7.07,4Z" style="fill:#eb996e"></path><path d="M259.78,250.29c.11,0,3.53-.48,3.21,3.56s-4.3,2.38-4.3,2.26S259.78,250.29,259.78,250.29Z" style="fill:#ffbe9d"></path><path d="M260,254.79s.07.06.18.12a.69.69,0,0,0,.53.06,1.77,1.77,0,0,0,.93-1.5,2.31,2.31,0,0,0-.12-1,.83.83,0,0,0-.48-.58.37.37,0,0,0-.44.16c-.06.11,0,.19-.06.2s-.08-.08,0-.24a.49.49,0,0,1,.18-.24.59.59,0,0,1,.4-.08,1,1,0,0,1,.69.69,2.52,2.52,0,0,1,.15,1.15,1.83,1.83,0,0,1-1.17,1.66.73.73,0,0,1-.63-.16C260,254.89,260,254.8,260,254.79Z" style="fill:#eb996e"></path><path d="M241.17,242.63a3.22,3.22,0,0,1-2.3-3.19,4,4,0,0,1,2.32-3.31,5.12,5.12,0,0,1,4.13.07,4.46,4.46,0,0,1,8.8.25c.14-1.08,1.35-1.68,2.44-1.75a3.6,3.6,0,0,1,2.94,1.08,2.2,2.2,0,0,1,0,2.94,4.91,4.91,0,0,1,3.46.83,3.64,3.64,0,0,1,1.54,3.12,2.91,2.91,0,0,1-2.18,2.61c-.41.08-.9.1-1.12.46a1.18,1.18,0,0,0-.11.67l.12,4a1.55,1.55,0,0,0-1.95.86,4.62,4.62,0,0,0-.22,2.34c-.34.51-1.21.36-1.58-.13a2.94,2.94,0,0,1-.41-1.78c0-2.15,0-4.3-.08-6.45a2.13,2.13,0,0,1-3.17-1.77,4.26,4.26,0,0,1-6.56-.8,10.29,10.29,0,0,1-2.12,1.41,3.39,3.39,0,0,1-2.48.21,2.09,2.09,0,0,1-1.45-1.89l.29-.24" style="fill:#263238"></path><path d="M242.63,250.76a.72.72,0,0,0,.7.74.73.73,0,0,0,0-1.46A.73.73,0,0,0,242.63,250.76Z" style="fill:#263238"></path><path d="M241.46,250c.09.1.62-.35,1.39-.38s1.34.36,1.42.26-.05-.23-.3-.41a1.86,1.86,0,0,0-1.14-.33,1.89,1.89,0,0,0-1.1.43C241.49,249.73,241.42,249.91,241.46,250Z" style="fill:#263238"></path><path d="M251,250.76a.73.73,0,0,0,.7.74.72.72,0,0,0,.73-.72.73.73,0,0,0-.7-.74A.74.74,0,0,0,251,250.76Z" style="fill:#263238"></path><path d="M250,250.1c.09.1.62-.35,1.39-.38s1.33.36,1.42.25-.06-.22-.31-.4a1.81,1.81,0,0,0-1.13-.33,1.86,1.86,0,0,0-1.11.43C250,249.87,249.91,250.06,250,250.1Z" style="fill:#263238"></path></g></svg>